<svg xmlns="http://www.w3.org/2000/svg" width="241.8" height="87.819" viewBox="0 0 241.8 87.819">
  <g id="Group_2784" data-name="Group 2784" transform="translate(-363.34 -148)">
    <g id="Group_2756" data-name="Group 2756" transform="translate(-7 -25)">
      <path id="Path_3941" data-name="Path 3941" d="M25.08,58.72a24.124,24.124,0,0,1-11.61-2.79,20.822,20.822,0,0,1-8.16-7.74A21.325,21.325,0,0,1,2.34,37,21.325,21.325,0,0,1,5.31,25.81a20.822,20.822,0,0,1,8.16-7.74,24.25,24.25,0,0,1,11.67-2.79,24.478,24.478,0,0,1,9.87,1.92,19.769,19.769,0,0,1,7.41,5.52l-6.24,5.76a13.417,13.417,0,0,0-10.56-4.92,14.022,14.022,0,0,0-6.96,1.71,12.156,12.156,0,0,0-4.77,4.77A14.022,14.022,0,0,0,12.18,37a14.022,14.022,0,0,0,1.71,6.96,12.156,12.156,0,0,0,4.77,4.77,14.022,14.022,0,0,0,6.96,1.71,13.352,13.352,0,0,0,10.56-4.98l6.24,5.76a19.45,19.45,0,0,1-7.44,5.58A24.693,24.693,0,0,1,25.08,58.72Zm112.14,0a24.515,24.515,0,0,1-11.79-2.82,20.93,20.93,0,0,1-8.22-7.77A21.212,21.212,0,0,1,114.24,37a21.212,21.212,0,0,1,2.97-11.13,20.93,20.93,0,0,1,8.22-7.77,25.993,25.993,0,0,1,23.55,0A21.017,21.017,0,0,1,160.2,37a21.017,21.017,0,0,1-11.22,18.9A24.341,24.341,0,0,1,137.22,58.72Zm0-8.28a13.328,13.328,0,0,0,6.72-1.71,12.271,12.271,0,0,0,4.71-4.77A14.022,14.022,0,0,0,150.36,37a14.022,14.022,0,0,0-1.71-6.96,12.271,12.271,0,0,0-4.71-4.77,14.059,14.059,0,0,0-13.44,0,12.271,12.271,0,0,0-4.71,4.77A14.022,14.022,0,0,0,124.08,37a14.022,14.022,0,0,0,1.71,6.96,12.271,12.271,0,0,0,4.71,4.77A13.328,13.328,0,0,0,137.22,50.44ZM194.28,58l-8.1-11.7h-8.94V58h-9.72V16H185.7a23.332,23.332,0,0,1,9.69,1.86,14.4,14.4,0,0,1,6.33,5.28,14.546,14.546,0,0,1,2.22,8.1A13.682,13.682,0,0,1,195.3,44.5L204.72,58Zm-.18-26.76a6.653,6.653,0,0,0-2.28-5.43q-2.28-1.89-6.66-1.89h-7.92V38.56h7.92q4.38,0,6.66-1.92A6.671,6.671,0,0,0,194.1,31.24ZM244.14,50.2V58H211.62V16h31.74v7.8H221.28v9.12h19.5v7.56h-19.5V50.2Z" transform="translate(368 176)" fill="#090963"/>
    </g>
    <path id="Path_3942" data-name="Path 3942" d="M5.909,18.19c3.648,0,5.377-1.824,5.377-3.952,0-4.883-7.885-3.04-7.885-5.871,0-1.007.836-1.805,2.888-1.805A7.391,7.391,0,0,1,9.956,7.607l.779-1.919A8.409,8.409,0,0,0,6.308,4.51C2.66,4.51.95,6.334.95,8.481c0,4.94,7.9,3.059,7.9,5.928,0,.988-.874,1.729-2.945,1.729A7.369,7.369,0,0,1,1.52,14.675L.665,16.594A8.57,8.57,0,0,0,5.909,18.19Zm8.8-12.008A1.458,1.458,0,0,0,16.226,4.7a1.414,1.414,0,0,0-1.52-1.368,1.428,1.428,0,1,0,0,2.85ZM13.509,18h2.375V7.854H13.509Zm13.3-10.146V9.2A4.393,4.393,0,0,0,23.294,7.74a4.817,4.817,0,0,0-5.13,4.883,4.847,4.847,0,0,0,5.13,4.921,4.466,4.466,0,0,0,3.4-1.349v.532c0,2.052-.988,3.078-3.23,3.078a6.129,6.129,0,0,1-3.743-1.216l-1.064,1.786a8.064,8.064,0,0,0,4.94,1.444c3.553,0,5.472-1.672,5.472-5.358V7.854ZM23.655,15.53a2.9,2.9,0,1,1,0-5.776,2.894,2.894,0,1,1,0,5.776ZM44.992,7.74a4.736,4.736,0,0,0-3.8,1.691,3.8,3.8,0,0,0-3.42-1.691,4.2,4.2,0,0,0-3.325,1.406V7.854H32.186V18h2.375V12.851c0-2.014,1.064-3.04,2.641-3.04,1.444,0,2.28.874,2.28,2.679V18h2.375V12.851c0-2.014,1.083-3.04,2.641-3.04,1.444,0,2.28.874,2.28,2.679V18h2.375V12.186C49.153,9.127,47.443,7.74,44.992,7.74Zm11.077,0a7.134,7.134,0,0,0-4.294,1.254l.931,1.729a5.023,5.023,0,0,1,3.078-1.007c1.691,0,2.527.817,2.527,2.2v.152H55.689c-3.078,0-4.218,1.33-4.218,3.021,0,1.767,1.463,3.04,3.781,3.04a3.6,3.6,0,0,0,3.192-1.368V18h2.242V12.053C60.686,9.127,58.995,7.74,56.069,7.74ZM55.746,16.4c-1.216,0-1.938-.551-1.938-1.406,0-.741.437-1.349,2.052-1.349h2.451v1.178A2.586,2.586,0,0,1,55.746,16.4Zm11.115,1.729c2.85,0,4.6-1.235,4.6-3.135,0-3.971-6.27-2.147-6.27-4.2,0-.665.684-1.14,2.128-1.14a5.554,5.554,0,0,1,2.907.76l.912-1.805a8.075,8.075,0,0,0-3.8-.874c-2.736,0-4.465,1.254-4.465,3.173,0,4.047,6.27,2.223,6.27,4.161,0,.7-.627,1.121-2.128,1.121a6.827,6.827,0,0,1-3.534-1.007l-.912,1.805A8.061,8.061,0,0,0,66.861,18.133Z" transform="translate(531 214)" fill="#7d7d7d"/>
    <g id="Group_2781" data-name="Group 2781" transform="translate(109.102 -243.213)">
      <g id="Group_2779" data-name="Group 2779" transform="translate(303.182 391.213)">
        <path id="Path_3924" data-name="Path 3924" d="M310.093,406.566a72.257,72.257,0,0,0-5.721,4.553A159.483,159.483,0,0,0,319.78,431.8a2.42,2.42,0,0,0,3.417.169l.161-.169a130.279,130.279,0,0,0,22.894-35.852A59.062,59.062,0,0,0,310.093,406.566Z" transform="translate(-294.782 -358.079)" fill="#4dbab5" opacity="0.39" style="isolation: isolate"/>
        <g id="Group_2779-2" data-name="Group 2779">
          <path id="Path_3939" data-name="Path 3939" d="M326.335,395.889h3.908v2.144H307.422v-2.144h3.884c1.185,0,2.144-.636,2.144-1.482v-.314a3.86,3.86,0,0,1-6.318-.411,13.425,13.425,0,1,0,24.546,7.518,13.22,13.22,0,0,0-1.829-6.648A3.84,3.84,0,0,1,324.2,394v.4C324.2,395.253,325.151,395.9,326.335,395.889Z" transform="translate(-291.571 -373.793)" fill="none"/>
          <path id="Path_3940" data-name="Path 3940" d="M342.894,395.484v-.266a4,4,0,0,0-4-4.005,3.96,3.96,0,0,0-3.03,1.466h-.048v18.744a3.84,3.84,0,0,0,5.649.548,13.22,13.22,0,0,1,1.829,6.648,13.425,13.425,0,1,1-24.546-7.518,3.86,3.86,0,0,0,6.318.411V392.43l-.154.016a3.94,3.94,0,0,0-6.785,2.337,26.643,26.643,0,0,0-14.94,23.837c0,18.26,23.877,45.063,24.892,46.2a2.42,2.42,0,0,0,3.417.169l.161-.169c1.016-1.136,24.892-27.939,24.892-46.2A26.586,26.586,0,0,0,342.894,395.484Z" transform="translate(-303.182 -391.213)" fill="#2299e2"/>
        </g>
      </g>
      <path id="Path_3924-2" data-name="Path 3924" d="M310.093,406.566a72.257,72.257,0,0,0-5.721,4.553A159.483,159.483,0,0,0,319.78,431.8a2.42,2.42,0,0,0,3.417.169l.161-.169a130.279,130.279,0,0,0,22.894-35.852A59.062,59.062,0,0,0,310.093,406.566Z" transform="translate(8.4 33.134)" fill="#18b7de" style="isolation: isolate"/>
    </g>
  </g>
</svg>
